<?xml version="1.0" encoding="utf-8"?>
<svg viewBox="0 0 1000 1000" width="1000px" height="1000px" xmlns="http://www.w3.org/2000/svg">
  <path d="M 125 200 L 875 200 C 888.807 200 900 211.193 900 225 L 900 775 C 900 788.807 888.807 800 875 800 L 125 800 C 111.193 800 100 788.807 100 775 L 100 225 C 100 211.193 111.193 200 125 200 Z M 141.5 252.5 L 141.5 747.5 C 141.5 753.023 145.977 757.5 151.5 757.5 L 846.5 757.5 C 852.023 757.5 856.5 753.023 856.5 747.5 L 856.5 252.5 C 856.5 246.977 852.023 242.5 846.5 242.5 L 151.5 242.5 C 145.977 242.5 141.5 246.977 141.5 252.5 Z" style="fill: rgb(255, 255, 255);"/>
  <g transform="matrix(38.228683, 0, 0, 38.228683, 4767.124023, -4442.319336)">
    <path d="M -104.623 123.283 C -104.622 123.284 -104.622 123.284 -104.621 123.285 L -104.621 135.281 C -104.622 135.282 -104.622 135.282 -104.623 135.283 L -118.619 135.283 C -118.62 135.282 -118.62 135.282 -118.621 135.281 L -118.621 123.285 C -118.62 123.284 -118.62 123.284 -118.619 123.283 L -104.623 123.283 Z M -104.621 122.283 L -118.621 122.283 C -119.171 122.283 -119.621 122.733 -119.621 123.283 L -119.621 135.283 C -119.621 135.833 -119.171 136.283 -118.621 136.283 L -104.621 136.283 C -104.071 136.283 -103.621 135.833 -103.621 135.283 L -103.621 123.283 C -103.621 122.733 -104.071 122.283 -104.621 122.283 L -104.621 122.283 Z" style="fill: rgb(255, 255, 255); visibility: hidden;"/>
    <path d="M -106.104 126.215 C -106.104 127.043 -106.776 127.715 -107.604 127.715 C -108.432 127.715 -109.104 127.043 -109.104 126.215 C -109.104 125.387 -108.432 124.715 -107.604 124.715 C -106.776 124.715 -106.104 125.387 -106.104 126.215 Z" style="fill: rgb(255, 255, 255);"/>
    <path d="M -103.907 134.283 L -119.162 134.283 L -119.162 132.283 L -114.713 126.283 L -109.628 131.283 L -108.357 131.283 L -103.907 128.283 Z" style="fill: rgb(255, 255, 255);"/>
  </g>
</svg>